<svg xmlns="http://www.w3.org/2000/svg" viewBox="0 0 220.44 81.14"><defs><style>.cls-1{fill:#aadee8;}</style></defs><g id="Layer_2" data-name="Layer 2"><g id="Layer_1-2" data-name="Layer 1"><path class="cls-1" d="M47.84,56.28a9.05,9.05,0,0,1-1.89-5c-.06-1.55-.06-3.1-.17-4.65-.39-5.84-3.64-10-9-11.57a13.86,13.86,0,0,0-10.86,1.06,14.21,14.21,0,0,0-4.54,5c-1.95,3.23-4.51,5.63-8.28,6.51a10.65,10.65,0,0,0-1.08.38,9.46,9.46,0,0,0-4.86,3.67,28.51,28.51,0,0,0-2.84,5.34,12.45,12.45,0,0,0,.06,9.57C6.27,71,9.93,73,14.45,73.34c2.71.21,5.44,0,8.17,0a11.59,11.59,0,0,1,8.77,3.7,9.55,9.55,0,0,0,1,1c2.76,2.36,5.87,3.63,9.56,2.87a13.59,13.59,0,0,0,7.73-4.74c3.25-3.86,4.69-8.23,2.52-13A42.25,42.25,0,0,0,47.84,56.28Z"/><path class="cls-1" d="M23.88,27.15a7.42,7.42,0,0,0,11.56,1.2,15.84,15.84,0,0,0,4.06-7,27.12,27.12,0,0,0,.67-11.18,15.73,15.73,0,0,0-2.6-7A7,7,0,0,0,29.46.34a9.78,9.78,0,0,0-5.87,4.83A22,22,0,0,0,21,18.49,17.29,17.29,0,0,0,23.88,27.15Z"/><path class="cls-1" d="M18.06,41a36.47,36.47,0,0,0,2.1-3.9,21.87,21.87,0,0,0-1.59-14.62,17.13,17.13,0,0,0-6.93-7.63,6.54,6.54,0,0,0-8.38,1.38A12.93,12.93,0,0,0,1,19.92,17.71,17.71,0,0,0,.57,30.41c1.13,5,3.39,9.41,7.86,12.35C12,45.1,15.6,44.47,18.06,41Z"/><path class="cls-1" d="M71.68,32.4a9.17,9.17,0,0,0-5.59-.56c-7.8,1.28-15,8.33-16.54,16.12-.73,3.78.77,6.8,4.2,8.19a10.25,10.25,0,0,0,6.17.4c7.78-1.68,12.49-6.77,15.31-13.93.13-.56.27-1.11.38-1.67C76.31,37.18,74.83,33.91,71.68,32.4Z"/><path class="cls-1" d="M42.22,31a6.47,6.47,0,0,0,5.9,5,9.56,9.56,0,0,0,6.63-1.84,21.65,21.65,0,0,0,8.39-11.18,19,19,0,0,0,.48-10.17c-1-3.9-4-5.8-7.95-5.21a12.41,12.41,0,0,0-6.51,3.12A22.7,22.7,0,0,0,42,24.09,14.7,14.7,0,0,0,42.22,31Z"/><path class="cls-1" d="M90.53,35.61a13.68,13.68,0,0,0,6,1.25,15.21,15.21,0,0,0,5.47-1,10.52,10.52,0,0,0,4.38-3.23L102.64,29a7.7,7.7,0,0,1-2.6,2,7,7,0,0,1-2.91.63A6.38,6.38,0,0,1,94.19,31a4.46,4.46,0,0,1-1.9-1.77,5.21,5.21,0,0,1-.66-2.65,9.18,9.18,0,0,1,.51-3.11,7.37,7.37,0,0,1,1.48-2.5,6.86,6.86,0,0,1,2.3-1.64,7.37,7.37,0,0,1,3-.58,6.09,6.09,0,0,1,2.95.68,5.46,5.46,0,0,1,2,2l4.57-3.67a7.65,7.65,0,0,0-3.6-3.15,13.3,13.3,0,0,0-5.54-1.1,15.81,15.81,0,0,0-5.75,1,13.09,13.09,0,0,0-4.46,2.82,12.63,12.63,0,0,0-2.89,4.3,13.86,13.86,0,0,0-1,5.4,9.63,9.63,0,0,0,1.38,5.17A9.34,9.34,0,0,0,90.53,35.61Z"/><path class="cls-1" d="M125,18.93l-1.74,8.66a5,5,0,0,1-1.41,2.94,3.79,3.79,0,0,1-2.64.95,2.14,2.14,0,0,1-2-.9A3.49,3.49,0,0,1,117,28l1.84-9.11h-6.12l-1.9,9.66a8.16,8.16,0,0,0,.12,4.47,5,5,0,0,0,2.2,2.72,7.07,7.07,0,0,0,3.67.92,8.24,8.24,0,0,0,3.75-.92,7,7,0,0,0,1.67-1.17l-.36,1.8h5.79l3.48-17.48Z"/><path class="cls-1" d="M141.3,28.17A5.09,5.09,0,0,1,143,25a5.21,5.21,0,0,1,3.25-1h.66c.21,0,.45,0,.73.09l1.06-5.54a10.53,10.53,0,0,0-4.46.88,6,6,0,0,0-1.87,1.36l.37-1.95H137l-3.48,17.48h6.12Z"/><polygon class="cls-1" points="160.56 12.52 154.44 12.52 149.68 36.41 155.79 36.41 160.56 12.52"/><path class="cls-1" d="M172.08,11.36a3.81,3.81,0,0,0-2.54-.8,4.09,4.09,0,0,0-2.88,1A3.17,3.17,0,0,0,165.58,14a2.84,2.84,0,0,0,.93,2.14,3.57,3.57,0,0,0,2.55.89A4.06,4.06,0,0,0,172,16a3.37,3.37,0,0,0,1.1-2.59A2.55,2.55,0,0,0,172.08,11.36Z"/><polygon class="cls-1" points="161.72 36.41 167.8 36.41 171.31 18.93 165.19 18.93 161.72 36.41"/><path class="cls-1" d="M191.87,19.57a7.19,7.19,0,0,0-3.75-.93,8.38,8.38,0,0,0-3.79.93,7.42,7.42,0,0,0-1.73,1.22l.37-1.86H177.2l-3.47,17.48h6.11l1.74-8.63a5.41,5.41,0,0,1,1.47-3,3.72,3.72,0,0,1,2.62-1,2.24,2.24,0,0,1,2.09.9,3.64,3.64,0,0,1,.2,2.61l-1.81,9h6.12l1.93-9.66a8.13,8.13,0,0,0-.11-4.46A5.13,5.13,0,0,0,191.87,19.57Z"/><path class="cls-1" d="M214.61,18.93l-.52,2.79a4.66,4.66,0,0,0-2.2-2.34,7.6,7.6,0,0,0-3.46-.74,9.64,9.64,0,0,0-3.75.72,9.29,9.29,0,0,0-3,2,9.72,9.72,0,0,0-2,3,9.25,9.25,0,0,0-.74,3.72,7.21,7.21,0,0,0,1.06,4,7,7,0,0,0,2.82,2.54,8.22,8.22,0,0,0,3.75.89,7.24,7.24,0,0,0,3.91-1,6.3,6.3,0,0,0,1-.74l-.12.6a5.23,5.23,0,0,1-1.52,2.89,5.11,5.11,0,0,1-3.54,1,11,11,0,0,1-3.27-.5,8.34,8.34,0,0,1-2.62-1.31l-2.74,4.25a11.14,11.14,0,0,0,3.72,1.69,18.46,18.46,0,0,0,4.75.57,12,12,0,0,0,7.58-2.29c2-1.52,3.28-4,4-7.47l2.86-14.26Zm-4.13,11.15a4.14,4.14,0,0,1-2.14.53,3.45,3.45,0,0,1-2.39-.77,2.61,2.61,0,0,1-.87-2.06,4.56,4.56,0,0,1,.52-2.2,3.71,3.71,0,0,1,1.45-1.49,4.32,4.32,0,0,1,2.16-.53,3.39,3.39,0,0,1,2.39.79,2.71,2.71,0,0,1,.86,2.08,4.39,4.39,0,0,1-.53,2.17A3.82,3.82,0,0,1,210.48,30.08Z"/><polygon class="cls-1" points="106.79 46.72 86.6 46.72 85.57 51.77 92.46 51.77 88.98 69.26 95.36 69.26 98.84 51.77 105.76 51.77 106.79 46.72"/><path class="cls-1" d="M120,54a4.76,4.76,0,0,0-1.71-1.63,7.39,7.39,0,0,0-3.64-.84,9.08,9.08,0,0,0-3.65.76,9.3,9.3,0,0,0-3,2.13,10,10,0,0,0-2,3.2,10.5,10.5,0,0,0-.74,4,8.43,8.43,0,0,0,1,4.32,7.46,7.46,0,0,0,10.44,2.46,7.53,7.53,0,0,0,1-.76l-.33,1.65H123l3.47-17.49h-6.11ZM116.8,64a3.81,3.81,0,0,1-2.15.61,3.24,3.24,0,0,1-2.45-.9,3.34,3.34,0,0,1-.87-2.42,6,6,0,0,1,.53-2.56A4.16,4.16,0,0,1,113.34,57a3.93,3.93,0,0,1,2.18-.61,3.16,3.16,0,0,1,2.41.92,3.34,3.34,0,0,1,.87,2.4,5.9,5.9,0,0,1-.53,2.57A4.18,4.18,0,0,1,116.8,64Z"/><path class="cls-1" d="M139.28,44.21a3.86,3.86,0,0,0-2.55-.81,4.14,4.14,0,0,0-2.88,1,3.21,3.21,0,0,0-1.08,2.47,2.82,2.82,0,0,0,.94,2.14,3.54,3.54,0,0,0,2.54.88,4.08,4.08,0,0,0,2.9-1,3.38,3.38,0,0,0,1.09-2.59A2.55,2.55,0,0,0,139.28,44.21Z"/><polygon class="cls-1" points="128.91 69.26 134.99 69.26 138.5 51.77 132.39 51.77 128.91 69.26"/><polygon class="cls-1" points="140.92 69.26 147.03 69.26 151.8 45.37 145.68 45.37 140.92 69.26"/><path class="cls-1" d="M160.69,56.27a4.52,4.52,0,0,1,2.15-.37,13.78,13.78,0,0,1,2.53.25,8.15,8.15,0,0,1,2.66,1l2.15-4.28a11.74,11.74,0,0,0-3-1,17.75,17.75,0,0,0-3.61-.37,14.66,14.66,0,0,0-4.75.73,7.57,7.57,0,0,0-3.33,2.14,5.14,5.14,0,0,0-1.22,3.51,3.94,3.94,0,0,0,.64,2.37,4.37,4.37,0,0,0,1.68,1.38,9.34,9.34,0,0,0,2.18.74c.78.16,1.51.3,2.19.4a8.54,8.54,0,0,1,1.69.41q.66.24.66.75a1.06,1.06,0,0,1-.64.92,4.57,4.57,0,0,1-2.16.37,12.76,12.76,0,0,1-3.18-.42,9.6,9.6,0,0,1-2.87-1.22l-2.22,4.28a10.86,10.86,0,0,0,3.19,1.21,18.5,18.5,0,0,0,4.34.5,14.85,14.85,0,0,0,4.74-.7,7.45,7.45,0,0,0,3.33-2.1,5.19,5.19,0,0,0,1.24-3.51,3.79,3.79,0,0,0-.66-2.35,4.67,4.67,0,0,0-1.66-1.36,9.37,9.37,0,0,0-2.17-.72l-2.19-.44a8.35,8.35,0,0,1-1.68-.45c-.44-.17-.66-.43-.66-.77A1,1,0,0,1,160.69,56.27Z"/></g></g></svg>